<mxfile host="app.diagrams.net" modified="2021-08-30T03:18:35.897Z" agent="5.0 (Windows NT 10.0; Win64; x64) AppleWebKit/537.36 (KHTML, like Gecko) Chrome/92.0.4515.159 Safari/537.36" etag="qUN-7XSdW05jmHAPeSG-" version="15.0.3" type="github">
  <diagram id="zyg6BVSqeQyWJHItKnlN" name="Page-1">
    <mxGraphModel dx="1422" dy="762" grid="1" gridSize="10" guides="1" tooltips="1" connect="1" arrows="1" fold="1" page="1" pageScale="1" pageWidth="827" pageHeight="1169" math="0" shadow="0">
      <root>
        <mxCell id="0" />
        <mxCell id="1" parent="0" />
        <mxCell id="YHURT6xgNJ127OOHsSc5-6" value="" style="edgeStyle=orthogonalEdgeStyle;rounded=0;orthogonalLoop=1;jettySize=auto;html=1;" edge="1" parent="1" source="YHURT6xgNJ127OOHsSc5-1" target="YHURT6xgNJ127OOHsSc5-3">
          <mxGeometry relative="1" as="geometry" />
        </mxCell>
        <mxCell id="YHURT6xgNJ127OOHsSc5-1" value="cur" style="rounded=0;whiteSpace=wrap;html=1;" vertex="1" parent="1">
          <mxGeometry x="90" y="40" width="80" height="30" as="geometry" />
        </mxCell>
        <mxCell id="YHURT6xgNJ127OOHsSc5-7" value="" style="edgeStyle=orthogonalEdgeStyle;rounded=0;orthogonalLoop=1;jettySize=auto;html=1;" edge="1" parent="1" source="YHURT6xgNJ127OOHsSc5-3" target="YHURT6xgNJ127OOHsSc5-4">
          <mxGeometry relative="1" as="geometry" />
        </mxCell>
        <mxCell id="YHURT6xgNJ127OOHsSc5-3" value="1" style="rounded=0;whiteSpace=wrap;html=1;" vertex="1" parent="1">
          <mxGeometry x="210" y="40" width="80" height="30" as="geometry" />
        </mxCell>
        <mxCell id="YHURT6xgNJ127OOHsSc5-8" value="" style="edgeStyle=orthogonalEdgeStyle;rounded=0;orthogonalLoop=1;jettySize=auto;html=1;" edge="1" parent="1" source="YHURT6xgNJ127OOHsSc5-4" target="YHURT6xgNJ127OOHsSc5-5">
          <mxGeometry relative="1" as="geometry" />
        </mxCell>
        <mxCell id="YHURT6xgNJ127OOHsSc5-4" value="2" style="rounded=0;whiteSpace=wrap;html=1;" vertex="1" parent="1">
          <mxGeometry x="333.5" y="40" width="80" height="30" as="geometry" />
        </mxCell>
        <mxCell id="YHURT6xgNJ127OOHsSc5-5" value="3" style="rounded=0;whiteSpace=wrap;html=1;" vertex="1" parent="1">
          <mxGeometry x="450" y="40" width="80" height="30" as="geometry" />
        </mxCell>
        <mxCell id="YHURT6xgNJ127OOHsSc5-9" value="one" style="text;html=1;strokeColor=none;fillColor=none;align=center;verticalAlign=middle;whiteSpace=wrap;rounded=0;" vertex="1" parent="1">
          <mxGeometry x="230" y="97" width="40" height="20" as="geometry" />
        </mxCell>
        <mxCell id="YHURT6xgNJ127OOHsSc5-10" value="two" style="text;html=1;strokeColor=none;fillColor=none;align=center;verticalAlign=middle;whiteSpace=wrap;rounded=0;" vertex="1" parent="1">
          <mxGeometry x="353.5" y="97" width="40" height="20" as="geometry" />
        </mxCell>
        <mxCell id="YHURT6xgNJ127OOHsSc5-11" value="three" style="text;html=1;strokeColor=none;fillColor=none;align=center;verticalAlign=middle;whiteSpace=wrap;rounded=0;" vertex="1" parent="1">
          <mxGeometry x="470" y="97" width="40" height="20" as="geometry" />
        </mxCell>
        <mxCell id="YHURT6xgNJ127OOHsSc5-34" style="edgeStyle=orthogonalEdgeStyle;rounded=0;orthogonalLoop=1;jettySize=auto;html=1;entryX=0.5;entryY=1;entryDx=0;entryDy=0;" edge="1" parent="1" source="YHURT6xgNJ127OOHsSc5-24" target="YHURT6xgNJ127OOHsSc5-28">
          <mxGeometry relative="1" as="geometry">
            <Array as="points">
              <mxPoint x="140" y="281" />
              <mxPoint x="384" y="281" />
              <mxPoint x="384" y="236" />
            </Array>
          </mxGeometry>
        </mxCell>
        <mxCell id="YHURT6xgNJ127OOHsSc5-24" value="cur" style="rounded=0;whiteSpace=wrap;html=1;" vertex="1" parent="1">
          <mxGeometry x="100" y="186" width="80" height="35" as="geometry" />
        </mxCell>
        <mxCell id="YHURT6xgNJ127OOHsSc5-25" value="" style="edgeStyle=orthogonalEdgeStyle;rounded=0;orthogonalLoop=1;jettySize=auto;html=1;" edge="1" parent="1" source="YHURT6xgNJ127OOHsSc5-26" target="YHURT6xgNJ127OOHsSc5-28">
          <mxGeometry relative="1" as="geometry" />
        </mxCell>
        <mxCell id="YHURT6xgNJ127OOHsSc5-26" value="1" style="rounded=0;whiteSpace=wrap;html=1;" vertex="1" parent="1">
          <mxGeometry x="220" y="186" width="80" height="30" as="geometry" />
        </mxCell>
        <mxCell id="YHURT6xgNJ127OOHsSc5-27" value="" style="edgeStyle=orthogonalEdgeStyle;rounded=0;orthogonalLoop=1;jettySize=auto;html=1;" edge="1" parent="1" source="YHURT6xgNJ127OOHsSc5-28" target="YHURT6xgNJ127OOHsSc5-29">
          <mxGeometry relative="1" as="geometry" />
        </mxCell>
        <mxCell id="YHURT6xgNJ127OOHsSc5-28" value="2" style="rounded=0;whiteSpace=wrap;html=1;" vertex="1" parent="1">
          <mxGeometry x="343.5" y="186" width="80" height="30" as="geometry" />
        </mxCell>
        <mxCell id="YHURT6xgNJ127OOHsSc5-29" value="3" style="rounded=0;whiteSpace=wrap;html=1;" vertex="1" parent="1">
          <mxGeometry x="460" y="186" width="80" height="30" as="geometry" />
        </mxCell>
        <mxCell id="YHURT6xgNJ127OOHsSc5-30" value="one" style="text;html=1;strokeColor=none;fillColor=none;align=center;verticalAlign=middle;whiteSpace=wrap;rounded=0;" vertex="1" parent="1">
          <mxGeometry x="240" y="243" width="40" height="20" as="geometry" />
        </mxCell>
        <mxCell id="YHURT6xgNJ127OOHsSc5-31" value="two" style="text;html=1;strokeColor=none;fillColor=none;align=center;verticalAlign=middle;whiteSpace=wrap;rounded=0;" vertex="1" parent="1">
          <mxGeometry x="363.5" y="243" width="40" height="20" as="geometry" />
        </mxCell>
        <mxCell id="YHURT6xgNJ127OOHsSc5-32" value="three" style="text;html=1;strokeColor=none;fillColor=none;align=center;verticalAlign=middle;whiteSpace=wrap;rounded=0;" vertex="1" parent="1">
          <mxGeometry x="480" y="243" width="40" height="20" as="geometry" />
        </mxCell>
        <mxCell id="YHURT6xgNJ127OOHsSc5-36" style="edgeStyle=orthogonalEdgeStyle;rounded=0;orthogonalLoop=1;jettySize=auto;html=1;entryX=0.5;entryY=1;entryDx=0;entryDy=0;" edge="1" parent="1" source="YHURT6xgNJ127OOHsSc5-37" target="YHURT6xgNJ127OOHsSc5-41">
          <mxGeometry relative="1" as="geometry">
            <Array as="points">
              <mxPoint x="140" y="475" />
              <mxPoint x="384" y="475" />
              <mxPoint x="384" y="430" />
            </Array>
          </mxGeometry>
        </mxCell>
        <mxCell id="YHURT6xgNJ127OOHsSc5-37" value="cur" style="rounded=0;whiteSpace=wrap;html=1;" vertex="1" parent="1">
          <mxGeometry x="100" y="380" width="80" height="35" as="geometry" />
        </mxCell>
        <mxCell id="YHURT6xgNJ127OOHsSc5-38" value="" style="edgeStyle=orthogonalEdgeStyle;rounded=0;orthogonalLoop=1;jettySize=auto;html=1;entryX=0.5;entryY=0;entryDx=0;entryDy=0;" edge="1" parent="1" source="YHURT6xgNJ127OOHsSc5-39" target="YHURT6xgNJ127OOHsSc5-42">
          <mxGeometry relative="1" as="geometry">
            <Array as="points">
              <mxPoint x="260" y="360" />
              <mxPoint x="500" y="360" />
            </Array>
          </mxGeometry>
        </mxCell>
        <mxCell id="YHURT6xgNJ127OOHsSc5-39" value="1" style="rounded=0;whiteSpace=wrap;html=1;" vertex="1" parent="1">
          <mxGeometry x="220" y="380" width="80" height="30" as="geometry" />
        </mxCell>
        <mxCell id="YHURT6xgNJ127OOHsSc5-40" value="" style="edgeStyle=orthogonalEdgeStyle;rounded=0;orthogonalLoop=1;jettySize=auto;html=1;" edge="1" parent="1" source="YHURT6xgNJ127OOHsSc5-41" target="YHURT6xgNJ127OOHsSc5-42">
          <mxGeometry relative="1" as="geometry" />
        </mxCell>
        <mxCell id="YHURT6xgNJ127OOHsSc5-41" value="2" style="rounded=0;whiteSpace=wrap;html=1;" vertex="1" parent="1">
          <mxGeometry x="343.5" y="380" width="80" height="30" as="geometry" />
        </mxCell>
        <mxCell id="YHURT6xgNJ127OOHsSc5-42" value="3" style="rounded=0;whiteSpace=wrap;html=1;" vertex="1" parent="1">
          <mxGeometry x="460" y="380" width="80" height="30" as="geometry" />
        </mxCell>
        <mxCell id="YHURT6xgNJ127OOHsSc5-43" value="one" style="text;html=1;strokeColor=none;fillColor=none;align=center;verticalAlign=middle;whiteSpace=wrap;rounded=0;" vertex="1" parent="1">
          <mxGeometry x="240" y="437" width="40" height="20" as="geometry" />
        </mxCell>
        <mxCell id="YHURT6xgNJ127OOHsSc5-44" value="two" style="text;html=1;strokeColor=none;fillColor=none;align=center;verticalAlign=middle;whiteSpace=wrap;rounded=0;" vertex="1" parent="1">
          <mxGeometry x="363.5" y="437" width="40" height="20" as="geometry" />
        </mxCell>
        <mxCell id="YHURT6xgNJ127OOHsSc5-45" value="three" style="text;html=1;strokeColor=none;fillColor=none;align=center;verticalAlign=middle;whiteSpace=wrap;rounded=0;" vertex="1" parent="1">
          <mxGeometry x="480" y="437" width="40" height="20" as="geometry" />
        </mxCell>
        <mxCell id="YHURT6xgNJ127OOHsSc5-46" style="edgeStyle=orthogonalEdgeStyle;rounded=0;orthogonalLoop=1;jettySize=auto;html=1;entryX=0.5;entryY=1;entryDx=0;entryDy=0;" edge="1" parent="1" source="YHURT6xgNJ127OOHsSc5-47" target="YHURT6xgNJ127OOHsSc5-51">
          <mxGeometry relative="1" as="geometry">
            <Array as="points">
              <mxPoint x="150" y="665" />
              <mxPoint x="394" y="665" />
              <mxPoint x="394" y="620" />
            </Array>
          </mxGeometry>
        </mxCell>
        <mxCell id="YHURT6xgNJ127OOHsSc5-47" value="cur" style="rounded=0;whiteSpace=wrap;html=1;" vertex="1" parent="1">
          <mxGeometry x="110" y="570" width="80" height="35" as="geometry" />
        </mxCell>
        <mxCell id="YHURT6xgNJ127OOHsSc5-48" value="" style="edgeStyle=orthogonalEdgeStyle;rounded=0;orthogonalLoop=1;jettySize=auto;html=1;entryX=0.5;entryY=0;entryDx=0;entryDy=0;" edge="1" parent="1" source="YHURT6xgNJ127OOHsSc5-49" target="YHURT6xgNJ127OOHsSc5-52">
          <mxGeometry relative="1" as="geometry">
            <Array as="points">
              <mxPoint x="270" y="550" />
              <mxPoint x="510" y="550" />
            </Array>
          </mxGeometry>
        </mxCell>
        <mxCell id="YHURT6xgNJ127OOHsSc5-49" value="1" style="rounded=0;whiteSpace=wrap;html=1;" vertex="1" parent="1">
          <mxGeometry x="230" y="570" width="80" height="30" as="geometry" />
        </mxCell>
        <mxCell id="YHURT6xgNJ127OOHsSc5-50" value="" style="edgeStyle=orthogonalEdgeStyle;rounded=0;orthogonalLoop=1;jettySize=auto;html=1;entryX=1;entryY=0.5;entryDx=0;entryDy=0;" edge="1" parent="1" source="YHURT6xgNJ127OOHsSc5-51" target="YHURT6xgNJ127OOHsSc5-49">
          <mxGeometry relative="1" as="geometry">
            <mxPoint x="320" y="585" as="targetPoint" />
          </mxGeometry>
        </mxCell>
        <mxCell id="YHURT6xgNJ127OOHsSc5-51" value="2" style="rounded=0;whiteSpace=wrap;html=1;" vertex="1" parent="1">
          <mxGeometry x="353.5" y="570" width="80" height="30" as="geometry" />
        </mxCell>
        <mxCell id="YHURT6xgNJ127OOHsSc5-52" value="3" style="rounded=0;whiteSpace=wrap;html=1;" vertex="1" parent="1">
          <mxGeometry x="470" y="570" width="80" height="30" as="geometry" />
        </mxCell>
        <mxCell id="YHURT6xgNJ127OOHsSc5-53" value="one" style="text;html=1;strokeColor=none;fillColor=none;align=center;verticalAlign=middle;whiteSpace=wrap;rounded=0;" vertex="1" parent="1">
          <mxGeometry x="250" y="627" width="40" height="20" as="geometry" />
        </mxCell>
        <mxCell id="YHURT6xgNJ127OOHsSc5-54" value="two" style="text;html=1;strokeColor=none;fillColor=none;align=center;verticalAlign=middle;whiteSpace=wrap;rounded=0;" vertex="1" parent="1">
          <mxGeometry x="373.5" y="627" width="40" height="20" as="geometry" />
        </mxCell>
        <mxCell id="YHURT6xgNJ127OOHsSc5-55" value="three" style="text;html=1;strokeColor=none;fillColor=none;align=center;verticalAlign=middle;whiteSpace=wrap;rounded=0;" vertex="1" parent="1">
          <mxGeometry x="490" y="627" width="40" height="20" as="geometry" />
        </mxCell>
        <mxCell id="YHURT6xgNJ127OOHsSc5-66" value="" style="edgeStyle=orthogonalEdgeStyle;rounded=0;orthogonalLoop=1;jettySize=auto;html=1;" edge="1" parent="1" source="YHURT6xgNJ127OOHsSc5-67" target="YHURT6xgNJ127OOHsSc5-69">
          <mxGeometry relative="1" as="geometry" />
        </mxCell>
        <mxCell id="YHURT6xgNJ127OOHsSc5-67" value="cur" style="rounded=0;whiteSpace=wrap;html=1;" vertex="1" parent="1">
          <mxGeometry x="100" y="740" width="80" height="30" as="geometry" />
        </mxCell>
        <mxCell id="YHURT6xgNJ127OOHsSc5-68" value="" style="edgeStyle=orthogonalEdgeStyle;rounded=0;orthogonalLoop=1;jettySize=auto;html=1;" edge="1" parent="1" source="YHURT6xgNJ127OOHsSc5-69" target="YHURT6xgNJ127OOHsSc5-71">
          <mxGeometry relative="1" as="geometry" />
        </mxCell>
        <mxCell id="YHURT6xgNJ127OOHsSc5-69" value="2" style="rounded=0;whiteSpace=wrap;html=1;" vertex="1" parent="1">
          <mxGeometry x="220" y="740" width="80" height="30" as="geometry" />
        </mxCell>
        <mxCell id="YHURT6xgNJ127OOHsSc5-70" value="" style="edgeStyle=orthogonalEdgeStyle;rounded=0;orthogonalLoop=1;jettySize=auto;html=1;" edge="1" parent="1" source="YHURT6xgNJ127OOHsSc5-71" target="YHURT6xgNJ127OOHsSc5-72">
          <mxGeometry relative="1" as="geometry" />
        </mxCell>
        <mxCell id="YHURT6xgNJ127OOHsSc5-71" value="1" style="rounded=0;whiteSpace=wrap;html=1;" vertex="1" parent="1">
          <mxGeometry x="343.5" y="740" width="80" height="30" as="geometry" />
        </mxCell>
        <mxCell id="YHURT6xgNJ127OOHsSc5-72" value="3" style="rounded=0;whiteSpace=wrap;html=1;" vertex="1" parent="1">
          <mxGeometry x="460" y="740" width="80" height="30" as="geometry" />
        </mxCell>
        <mxCell id="YHURT6xgNJ127OOHsSc5-73" value="one" style="text;html=1;strokeColor=none;fillColor=none;align=center;verticalAlign=middle;whiteSpace=wrap;rounded=0;" vertex="1" parent="1">
          <mxGeometry x="363.5" y="790" width="40" height="20" as="geometry" />
        </mxCell>
        <mxCell id="YHURT6xgNJ127OOHsSc5-74" value="two" style="text;html=1;strokeColor=none;fillColor=none;align=center;verticalAlign=middle;whiteSpace=wrap;rounded=0;" vertex="1" parent="1">
          <mxGeometry x="240" y="797" width="40" height="20" as="geometry" />
        </mxCell>
        <mxCell id="YHURT6xgNJ127OOHsSc5-75" value="three" style="text;html=1;strokeColor=none;fillColor=none;align=center;verticalAlign=middle;whiteSpace=wrap;rounded=0;" vertex="1" parent="1">
          <mxGeometry x="480" y="797" width="40" height="20" as="geometry" />
        </mxCell>
        <mxCell id="YHURT6xgNJ127OOHsSc5-76" value="" style="edgeStyle=orthogonalEdgeStyle;rounded=0;orthogonalLoop=1;jettySize=auto;html=1;" edge="1" parent="1" source="YHURT6xgNJ127OOHsSc5-77" target="YHURT6xgNJ127OOHsSc5-79">
          <mxGeometry relative="1" as="geometry" />
        </mxCell>
        <mxCell id="YHURT6xgNJ127OOHsSc5-77" value="cur" style="rounded=0;whiteSpace=wrap;html=1;" vertex="1" parent="1">
          <mxGeometry x="90" y="870" width="80" height="30" as="geometry" />
        </mxCell>
        <mxCell id="YHURT6xgNJ127OOHsSc5-78" value="" style="edgeStyle=orthogonalEdgeStyle;rounded=0;orthogonalLoop=1;jettySize=auto;html=1;" edge="1" parent="1" source="YHURT6xgNJ127OOHsSc5-79" target="YHURT6xgNJ127OOHsSc5-81">
          <mxGeometry relative="1" as="geometry" />
        </mxCell>
        <mxCell id="YHURT6xgNJ127OOHsSc5-79" value="2" style="rounded=0;whiteSpace=wrap;html=1;" vertex="1" parent="1">
          <mxGeometry x="210" y="870" width="80" height="30" as="geometry" />
        </mxCell>
        <mxCell id="YHURT6xgNJ127OOHsSc5-80" value="" style="edgeStyle=orthogonalEdgeStyle;rounded=0;orthogonalLoop=1;jettySize=auto;html=1;" edge="1" parent="1" source="YHURT6xgNJ127OOHsSc5-81" target="YHURT6xgNJ127OOHsSc5-82">
          <mxGeometry relative="1" as="geometry" />
        </mxCell>
        <mxCell id="YHURT6xgNJ127OOHsSc5-81" value="1" style="rounded=0;whiteSpace=wrap;html=1;" vertex="1" parent="1">
          <mxGeometry x="333.5" y="870" width="80" height="30" as="geometry" />
        </mxCell>
        <mxCell id="YHURT6xgNJ127OOHsSc5-88" value="" style="edgeStyle=orthogonalEdgeStyle;rounded=0;orthogonalLoop=1;jettySize=auto;html=1;" edge="1" parent="1" source="YHURT6xgNJ127OOHsSc5-82" target="YHURT6xgNJ127OOHsSc5-87">
          <mxGeometry relative="1" as="geometry" />
        </mxCell>
        <mxCell id="YHURT6xgNJ127OOHsSc5-82" value="3" style="rounded=0;whiteSpace=wrap;html=1;" vertex="1" parent="1">
          <mxGeometry x="450" y="870" width="80" height="30" as="geometry" />
        </mxCell>
        <mxCell id="YHURT6xgNJ127OOHsSc5-83" value="one" style="text;html=1;strokeColor=none;fillColor=none;align=center;verticalAlign=middle;whiteSpace=wrap;rounded=0;" vertex="1" parent="1">
          <mxGeometry x="353.5" y="920" width="40" height="20" as="geometry" />
        </mxCell>
        <mxCell id="YHURT6xgNJ127OOHsSc5-84" value="two" style="text;html=1;strokeColor=none;fillColor=none;align=center;verticalAlign=middle;whiteSpace=wrap;rounded=0;" vertex="1" parent="1">
          <mxGeometry x="230" y="920" width="40" height="20" as="geometry" />
        </mxCell>
        <mxCell id="YHURT6xgNJ127OOHsSc5-85" value="three" style="text;html=1;strokeColor=none;fillColor=none;align=center;verticalAlign=middle;whiteSpace=wrap;rounded=0;" vertex="1" parent="1">
          <mxGeometry x="470" y="920" width="40" height="20" as="geometry" />
        </mxCell>
        <mxCell id="YHURT6xgNJ127OOHsSc5-87" value="4" style="rounded=0;whiteSpace=wrap;html=1;" vertex="1" parent="1">
          <mxGeometry x="560" y="870" width="80" height="30" as="geometry" />
        </mxCell>
        <mxCell id="YHURT6xgNJ127OOHsSc5-89" value="" style="edgeStyle=orthogonalEdgeStyle;rounded=0;orthogonalLoop=1;jettySize=auto;html=1;" edge="1" parent="1" source="YHURT6xgNJ127OOHsSc5-90" target="YHURT6xgNJ127OOHsSc5-92">
          <mxGeometry relative="1" as="geometry" />
        </mxCell>
        <mxCell id="YHURT6xgNJ127OOHsSc5-90" value="" style="rounded=0;whiteSpace=wrap;html=1;" vertex="1" parent="1">
          <mxGeometry x="80" y="1000" width="80" height="30" as="geometry" />
        </mxCell>
        <mxCell id="YHURT6xgNJ127OOHsSc5-91" value="" style="edgeStyle=orthogonalEdgeStyle;rounded=0;orthogonalLoop=1;jettySize=auto;html=1;" edge="1" parent="1" source="YHURT6xgNJ127OOHsSc5-92" target="YHURT6xgNJ127OOHsSc5-94">
          <mxGeometry relative="1" as="geometry" />
        </mxCell>
        <mxCell id="YHURT6xgNJ127OOHsSc5-92" value="2" style="rounded=0;whiteSpace=wrap;html=1;" vertex="1" parent="1">
          <mxGeometry x="200" y="1000" width="80" height="30" as="geometry" />
        </mxCell>
        <mxCell id="YHURT6xgNJ127OOHsSc5-93" value="" style="edgeStyle=orthogonalEdgeStyle;rounded=0;orthogonalLoop=1;jettySize=auto;html=1;" edge="1" parent="1" source="YHURT6xgNJ127OOHsSc5-94" target="YHURT6xgNJ127OOHsSc5-96">
          <mxGeometry relative="1" as="geometry" />
        </mxCell>
        <mxCell id="YHURT6xgNJ127OOHsSc5-94" value="1" style="rounded=0;whiteSpace=wrap;html=1;" vertex="1" parent="1">
          <mxGeometry x="323.5" y="1000" width="80" height="30" as="geometry" />
        </mxCell>
        <mxCell id="YHURT6xgNJ127OOHsSc5-95" value="" style="edgeStyle=orthogonalEdgeStyle;rounded=0;orthogonalLoop=1;jettySize=auto;html=1;" edge="1" parent="1" source="YHURT6xgNJ127OOHsSc5-96" target="YHURT6xgNJ127OOHsSc5-100">
          <mxGeometry relative="1" as="geometry" />
        </mxCell>
        <mxCell id="YHURT6xgNJ127OOHsSc5-96" value="3" style="rounded=0;whiteSpace=wrap;html=1;" vertex="1" parent="1">
          <mxGeometry x="440" y="1000" width="80" height="30" as="geometry" />
        </mxCell>
        <mxCell id="YHURT6xgNJ127OOHsSc5-97" value="cur" style="text;html=1;strokeColor=none;fillColor=none;align=center;verticalAlign=middle;whiteSpace=wrap;rounded=0;" vertex="1" parent="1">
          <mxGeometry x="343.5" y="1050" width="40" height="20" as="geometry" />
        </mxCell>
        <mxCell id="YHURT6xgNJ127OOHsSc5-98" value="two" style="text;html=1;strokeColor=none;fillColor=none;align=center;verticalAlign=middle;whiteSpace=wrap;rounded=0;" vertex="1" parent="1">
          <mxGeometry x="570" y="1050" width="40" height="20" as="geometry" />
        </mxCell>
        <mxCell id="YHURT6xgNJ127OOHsSc5-99" value="three" style="text;html=1;strokeColor=none;fillColor=none;align=center;verticalAlign=middle;whiteSpace=wrap;rounded=0;" vertex="1" parent="1">
          <mxGeometry x="680" y="1050" width="40" height="20" as="geometry" />
        </mxCell>
        <mxCell id="YHURT6xgNJ127OOHsSc5-105" value="" style="edgeStyle=orthogonalEdgeStyle;rounded=0;orthogonalLoop=1;jettySize=auto;html=1;" edge="1" parent="1" source="YHURT6xgNJ127OOHsSc5-100" target="YHURT6xgNJ127OOHsSc5-103">
          <mxGeometry relative="1" as="geometry" />
        </mxCell>
        <mxCell id="YHURT6xgNJ127OOHsSc5-100" value="4" style="rounded=0;whiteSpace=wrap;html=1;" vertex="1" parent="1">
          <mxGeometry x="550" y="1000" width="80" height="30" as="geometry" />
        </mxCell>
        <mxCell id="YHURT6xgNJ127OOHsSc5-101" value="one" style="text;html=1;strokeColor=none;fillColor=none;align=center;verticalAlign=middle;whiteSpace=wrap;rounded=0;" vertex="1" parent="1">
          <mxGeometry x="460" y="1050" width="40" height="20" as="geometry" />
        </mxCell>
        <mxCell id="YHURT6xgNJ127OOHsSc5-103" value="null" style="rounded=0;whiteSpace=wrap;html=1;" vertex="1" parent="1">
          <mxGeometry x="660" y="1000" width="80" height="30" as="geometry" />
        </mxCell>
      </root>
    </mxGraphModel>
  </diagram>
</mxfile>
